<svg width="16" height="16" viewBox="0 0 16 16" fill="none" xmlns="http://www.w3.org/2000/svg">
  <path fill-rule="evenodd" clip-rule="evenodd"
    d="M8 15C8 15 14 11.1818 14 6.72727C14 5.20831 13.3679 3.75155 12.2426 2.67748C11.1174 1.60341 9.5913 1 8 1C6.4087 1 4.88258 1.60341 3.75736 2.67748C2.63214 3.75155 2 5.20831 2 6.72727C2 11.1818 8 15 8 15ZM10.25 6.75C10.25 7.99264 9.24264 9 8 9C6.75736 9 5.75 7.99264 5.75 6.75C5.75 5.50736 6.75736 4.5 8 4.5C9.24264 4.5 10.25 5.50736 10.25 6.75Z"
    fill="currentColor" />
</svg>
