<svg viewBox="0 0 24 24" fill="none" xmlns="http://www.w3.org/2000/svg">
  <path fill-rule="evenodd" clip-rule="evenodd"
    d="M5 2C5 1.44772 5.44772 1 6 1C6.55228 1 7 1.44772 7 2C7 2.55228 6.55228 3 6 3C5.44772 3 5 2.55228 5 2ZM6.99687 7H17.0031C17.939 7 18.7497 7.64899 18.9546 8.56217L19.5016 11H19H5H4.49844L5.04539 8.56216C5.25027 7.64899 6.061 7 6.99687 7ZM2.18996 12.1533L2.44872 11L3.0939 8.12433C3.50366 6.29799 5.12513 5 6.99687 5H17.0031C18.8749 5 20.4963 6.29799 20.9061 8.12433L21.5513 11L21.81 12.1533C22.5447 12.8786 23 13.8861 23 15V22C23 22.5523 22.5523 23 22 23H19.4142C19.149 23 18.8946 22.8946 18.7071 22.7071L17.5858 21.5858C17.2107 21.2107 16.702 21 16.1716 21H7.82843C7.29799 21 6.78929 21.2107 6.41421 21.5858L5.29289 22.7071C5.10536 22.8946 4.851 23 4.58579 23H2C1.44772 23 1 22.5523 1 22V15C1 13.8861 1.45531 12.8786 2.18996 12.1533ZM5 13C3.89543 13 3 13.8954 3 15V21H4.17157L5 20.1716C5.75015 19.4214 6.76756 19 7.82843 19H16.1716C17.2324 19 18.2499 19.4214 19 20.1716L19.8284 21H21V15C21 13.8954 20.1046 13 19 13H5ZM4 15C4 14.4477 4.44772 14 5 14H7C7.55228 14 8 14.4477 8 15C8 15.5523 7.55228 16 7 16H5C4.44772 16 4 15.5523 4 15ZM17 14C16.4477 14 16 14.4477 16 15C16 15.5523 16.4477 16 17 16H19C19.5523 16 20 15.5523 20 15C20 14.4477 19.5523 14 19 14H17ZM10 1C9.44771 1 9 1.44772 9 2C9 2.55228 9.44771 3 10 3C10.5523 3 11 2.55228 11 2C11 1.44772 10.5523 1 10 1ZM13 2C13 1.44772 13.4477 1 14 1C14.5523 1 15 1.44772 15 2C15 2.55228 14.5523 3 14 3C13.4477 3 13 2.55228 13 2ZM18 1C17.4477 1 17 1.44772 17 2C17 2.55228 17.4477 3 18 3C18.5523 3 19 2.55228 19 2C19 1.44772 18.5523 1 18 1Z"
    fill="currentColor" />
</svg>
