<svg width="24" height="24" viewBox="0 0 24 24" fill="none" xmlns="http://www.w3.org/2000/svg">
<g clip-path="url(#clip0_521_2616)">
<path d="M4.63 20.14C5.29 18.6 6.83 17 8.7 17H15.3C17.17 17 18.71 18.6 19.37 20.14M15.3 9.91C15.3 11.78 13.87 13.21 12 13.21C10.13 13.21 8.7 11.78 8.7 9.91C8.7 8.04 10.13 6.61 12 6.61C13.87 6.61 15.3 8.04 15.3 9.91ZM23 12C23 18.05 18.05 23 12 23C5.95 23 1 18.05 1 12C1 5.95 5.95 1 12 1C18.05 1 23 5.95 23 12Z" stroke="#5F656E" stroke-width="2" stroke-linecap="round" stroke-linejoin="round"/>
</g>
<defs>
<clipPath id="clip0_521_2616">
<rect width="24" height="24" fill="white"/>
</clipPath>
</defs>
</svg>
