<svg width="24" height="24" viewBox="0 0 24 24" fill="none" xmlns="http://www.w3.org/2000/svg">
<g clip-path="url(#clip0_2001_724)">
<mask id="path-1-inside-1_2001_724" fill="white">
<rect x="4" y="4" width="7" height="7" rx="1"/>
</mask>
<rect x="4" y="4" width="7" height="7" rx="1" stroke="#111419" stroke-width="4" mask="url(#path-1-inside-1_2001_724)"/>
<rect x="11" y="13" width="2" height="7" rx="1" transform="rotate(90 11 13)" fill="#111419"/>
<rect x="13" y="11" width="2" height="7" rx="1" transform="rotate(-90 13 11)" fill="#111419"/>
<rect x="9" y="13" width="2" height="7" rx="1" fill="#111419"/>
<rect x="15" y="11" width="2" height="7" rx="1" transform="rotate(180 15 11)" fill="#111419"/>
<path d="M7 17L7 20L5 20C4.44772 20 4 19.5523 4 19L4 17L7 17Z" fill="#111419"/>
<path d="M17 7L17 4L19 4C19.5523 4 20 4.44771 20 5L20 7L17 7Z" fill="#111419"/>
<mask id="path-8-inside-2_2001_724" fill="white">
<rect x="13" y="13" width="7" height="7" rx="1"/>
</mask>
<rect x="13" y="13" width="7" height="7" rx="1" stroke="#111419" stroke-width="4" mask="url(#path-8-inside-2_2001_724)"/>
<path d="M7.11111 1H6.86667C4.81314 1 3.78638 1 3.00203 1.39964C2.31211 1.75118 1.75118 2.31211 1.39964 3.00203C1 3.78638 1 4.81314 1 6.86667V7.11111M7.11111 23H6.86667C4.81314 23 3.78638 23 3.00203 22.6004C2.31211 22.2488 1.75118 21.6879 1.39964 20.998C1 20.2136 1 19.1869 1 17.1333V16.8889M23 7.11111V6.86667C23 4.81314 23 3.78638 22.6004 3.00204C22.2488 2.31211 21.6879 1.75118 20.998 1.39964C20.2136 1 19.1869 1 17.1333 1H16.8889M23 16.8889V17.1333C23 19.1869 23 20.2136 22.6004 20.998C22.2488 21.6879 21.6879 22.2488 20.998 22.6004C20.2136 23 19.1869 23 17.1333 23H16.8889" stroke="#111419" stroke-width="2" stroke-linecap="round" stroke-linejoin="round"/>
</g>
<defs>
<clipPath id="clip0_2001_724">
<rect width="24" height="24" fill="white"/>
</clipPath>
</defs>
</svg>
